{
	"asset":{
		"generator":"Khronos glTF Blender I/O v4.2.57",
		"version":"2.0"
	},
	"scene":0,
	"scenes":[
		{
			"extras":{
				"MM":{
					"revision":"77fa6a4129a61aa3ec3755cc30c8648e4f020d0f"
				},
				"bc":{
					"snap":{
						"hit":false
					},
					"running":0,
					"collection":null,
					"shape":null
				},
				"M3":{}
			},
			"name":"Scene",
			"nodes":[
				0
			]
		}
	],
	"nodes":[
		{
			"extras":{
				"hops":{},
				"MM":{},
				"M3":{}
			},
			"mesh":0,
			"name":"simple_sword",
			"scale":[
				0.25103557109832764,
				0.25103557109832764,
				0.25103557109832764
			],
			"translation":[
				0,
				0,
				0.4447399377822876
			]
		}
	],
	"meshes":[
		{
			"extras":{
				"hops":{}
			},
			"name":"simple_sword",
			"primitives":[
				{
					"attributes":{
						"POSITION":0,
						"NORMAL":1,
						"TEXCOORD_0":2,
						"TANGENT":3
					},
					"indices":4
				}
			]
		}
	],
	"accessors":[
		{
			"bufferView":0,
			"componentType":5126,
			"count":86,
			"max":[
				1.333916187286377,
				0.5464518070220947,
				7.382892608642578
			],
			"min":[
				-1.333916187286377,
				-0.5464518070220947,
				-3.2257986068725586
			],
			"type":"VEC3"
		},
		{
			"bufferView":1,
			"componentType":5126,
			"count":86,
			"type":"VEC3"
		},
		{
			"bufferView":2,
			"componentType":5126,
			"count":86,
			"type":"VEC2"
		},
		{
			"bufferView":3,
			"componentType":5126,
			"count":86,
			"type":"VEC4"
		},
		{
			"bufferView":4,
			"componentType":5123,
			"count":240,
			"type":"SCALAR"
		}
	],
	"bufferViews":[
		{
			"buffer":0,
			"byteLength":1032,
			"byteOffset":0,
			"target":34962
		},
		{
			"buffer":0,
			"byteLength":1032,
			"byteOffset":1032,
			"target":34962
		},
		{
			"buffer":0,
			"byteLength":688,
			"byteOffset":2064,
			"target":34962
		},
		{
			"buffer":0,
			"byteLength":1376,
			"byteOffset":2752,
			"target":34962
		},
		{
			"buffer":0,
			"byteLength":480,
			"byteOffset":4128,
			"target":34963
		}
	],
	"buffers":[
		{
			"byteLength":4608,
			"uri":"simple_sword-7d2f2a5892f4f794cde3db243f3c8b2d.bin"
		}
	]
}
