<?xml version="1.0" encoding="UTF-8" ?>
<svg version="1.1" width="12" height="12" xmlns="http://www.w3.org/2000/svg" shape-rendering="crispEdges">
<rect x="4" y="0" width="1" height="1" fill="#FFFFFF" opacity="0.176471" />
<rect x="5" y="0" width="1" height="1" fill="#FFFFFF" opacity="0.545098" />
<rect x="6" y="0" width="1" height="1" fill="#FFFFFF" opacity="0.541176" />
<rect x="7" y="0" width="1" height="1" fill="#FFFFFF" opacity="0.196078" />
<rect x="4" y="1" width="1" height="1" fill="#FFFFFF" opacity="0.545098" />
<rect x="5" y="1" width="1" height="1" fill="#FFFFFF" opacity="0.164706" />
<rect x="6" y="1" width="1" height="1" fill="#FFFFFF" opacity="0.141176" />
<rect x="7" y="1" width="1" height="1" fill="#FFFFFF" opacity="0.556863" />
<rect x="8" y="1" width="1" height="1" fill="#FFFFFF" opacity="0.019608" />
<rect x="3" y="2" width="1" height="1" fill="#FFFFFF" opacity="0.396078" />
<rect x="4" y="2" width="1" height="1" fill="#FFFFFF" opacity="0.654902" />
<rect x="7" y="2" width="1" height="1" fill="#FFFFFF" opacity="0.619608" />
<rect x="8" y="2" width="1" height="1" fill="#FFFFFF" opacity="0.443137" />
<rect x="1" y="3" width="1" height="1" fill="#FFFFFF" opacity="0.011765" />
<rect x="2" y="3" width="1" height="1" fill="#FFFFFF" opacity="0.403922" />
<rect x="3" y="3" width="1" height="1" fill="#FFFFFF" opacity="0.423529" />
<rect x="4" y="3" width="1" height="1" fill="#FFFFFF" opacity="0.447059" />
<rect x="5" y="3" width="1" height="1" fill="#FFFFFF" opacity="0.486275" />
<rect x="6" y="3" width="1" height="1" fill="#FFFFFF" opacity="0.466667" />
<rect x="7" y="3" width="1" height="1" fill="#FFFFFF" opacity="0.450980" />
<rect x="8" y="3" width="1" height="1" fill="#FFFFFF" opacity="0.427451" />
<rect x="9" y="3" width="1" height="1" fill="#FFFFFF" opacity="0.431373" />
<rect x="10" y="3" width="1" height="1" fill="#FFFFFF" opacity="0.015686" />
<rect x="0" y="4" width="1" height="1" fill="#FFFFFF" opacity="0.192157" />
<rect x="1" y="4" width="1" height="1" fill="#FFFFFF" opacity="0.580392" />
<rect x="2" y="4" width="1" height="1" fill="#FFFFFF" opacity="0.607843" />
<rect x="3" y="4" width="1" height="1" fill="#FFFFFF" opacity="0.407843" />
<rect x="5" y="4" width="1" height="1" fill="#FFFFFF" opacity="0.325490" />
<rect x="6" y="4" width="1" height="1" fill="#FFFFFF" opacity="0.337255" />
<rect x="8" y="4" width="1" height="1" fill="#FFFFFF" opacity="0.380392" />
<rect x="9" y="4" width="1" height="1" fill="#FFFFFF" opacity="0.619608" />
<rect x="10" y="4" width="1" height="1" fill="#FFFFFF" opacity="0.584314" />
<rect x="11" y="4" width="1" height="1" fill="#FFFFFF" opacity="0.207843" />
<rect x="0" y="5" width="1" height="1" fill="#FFFFFF" opacity="0.560784" />
<rect x="1" y="5" width="1" height="1" fill="#FFFFFF" opacity="0.125490" />
<rect x="3" y="5" width="1" height="1" fill="#FFFFFF" opacity="0.478431" />
<rect x="4" y="5" width="1" height="1" fill="#FFFFFF" opacity="0.325490" />
<rect x="7" y="5" width="1" height="1" fill="#FFFFFF" opacity="0.301961" />
<rect x="8" y="5" width="1" height="1" fill="#FFFFFF" opacity="0.490196" />
<rect x="10" y="5" width="1" height="1" fill="#FFFFFF" opacity="0.105882" />
<rect x="11" y="5" width="1" height="1" fill="#FFFFFF" opacity="0.537255" />
<rect x="0" y="6" width="1" height="1" fill="#FFFFFF" opacity="0.564706" />
<rect x="1" y="6" width="1" height="1" fill="#FFFFFF" opacity="0.090196" />
<rect x="3" y="6" width="1" height="1" fill="#FFFFFF" opacity="0.462745" />
<rect x="4" y="6" width="1" height="1" fill="#FFFFFF" opacity="0.341176" />
<rect x="7" y="6" width="1" height="1" fill="#FFFFFF" opacity="0.301961" />
<rect x="8" y="6" width="1" height="1" fill="#FFFFFF" opacity="0.486275" />
<rect x="10" y="6" width="1" height="1" fill="#FFFFFF" opacity="0.035294" />
<rect x="11" y="6" width="1" height="1" fill="#FFFFFF" opacity="0.537255" />
<rect x="0" y="7" width="1" height="1" fill="#FFFFFF" opacity="0.215686" />
<rect x="1" y="7" width="1" height="1" fill="#FFFFFF" opacity="0.588235" />
<rect x="2" y="7" width="1" height="1" fill="#FFFFFF" opacity="0.580392" />
<rect x="3" y="7" width="1" height="1" fill="#FFFFFF" opacity="0.415686" />
<rect x="5" y="7" width="1" height="1" fill="#FFFFFF" opacity="0.294118" />
<rect x="6" y="7" width="1" height="1" fill="#FFFFFF" opacity="0.305882" />
<rect x="8" y="7" width="1" height="1" fill="#FFFFFF" opacity="0.376471" />
<rect x="9" y="7" width="1" height="1" fill="#FFFFFF" opacity="0.596078" />
<rect x="10" y="7" width="1" height="1" fill="#FFFFFF" opacity="0.584314" />
<rect x="11" y="7" width="1" height="1" fill="#FFFFFF" opacity="0.247059" />
<rect x="1" y="8" width="1" height="1" fill="#FFFFFF" opacity="0.039216" />
<rect x="2" y="8" width="1" height="1" fill="#FFFFFF" opacity="0.443137" />
<rect x="3" y="8" width="1" height="1" fill="#FFFFFF" opacity="0.423529" />
<rect x="4" y="8" width="1" height="1" fill="#FFFFFF" opacity="0.423529" />
<rect x="5" y="8" width="1" height="1" fill="#FFFFFF" opacity="0.498039" />
<rect x="6" y="8" width="1" height="1" fill="#FFFFFF" opacity="0.482353" />
<rect x="7" y="8" width="1" height="1" fill="#FFFFFF" opacity="0.427451" />
<rect x="8" y="8" width="1" height="1" fill="#FFFFFF" opacity="0.419608" />
<rect x="9" y="8" width="1" height="1" fill="#FFFFFF" opacity="0.466667" />
<rect x="10" y="8" width="1" height="1" fill="#FFFFFF" opacity="0.066667" />
<rect x="3" y="9" width="1" height="1" fill="#FFFFFF" opacity="0.419608" />
<rect x="4" y="9" width="1" height="1" fill="#FFFFFF" opacity="0.670588" />
<rect x="7" y="9" width="1" height="1" fill="#FFFFFF" opacity="0.639216" />
<rect x="8" y="9" width="1" height="1" fill="#FFFFFF" opacity="0.470588" />
<rect x="4" y="10" width="1" height="1" fill="#FFFFFF" opacity="0.545098" />
<rect x="5" y="10" width="1" height="1" fill="#FFFFFF" opacity="0.133333" />
<rect x="6" y="10" width="1" height="1" fill="#FFFFFF" opacity="0.105882" />
<rect x="7" y="10" width="1" height="1" fill="#FFFFFF" opacity="0.556863" />
<rect x="8" y="10" width="1" height="1" fill="#FFFFFF" opacity="0.023529" />
<rect x="4" y="11" width="1" height="1" fill="#FFFFFF" opacity="0.203922" />
<rect x="5" y="11" width="1" height="1" fill="#FFFFFF" opacity="0.521569" />
<rect x="6" y="11" width="1" height="1" fill="#FFFFFF" opacity="0.509804" />
<rect x="7" y="11" width="1" height="1" fill="#FFFFFF" opacity="0.223529" />
</svg>