{
	"asset":{
		"generator":"Khronos glTF Blender I/O v4.2.57",
		"version":"2.0"
	},
	"scene":0,
	"scenes":[
		{
			"name":"Scene",
			"nodes":[
				0
			]
		}
	],
	"nodes":[
		{
			"mesh":0,
			"name":"simple_sword",
			"scale":[
				0.25103557109832764,
				0.25103557109832764,
				0.25103557109832764
			],
			"translation":[
				0,
				0,
				0.4447399377822876
			]
		}
	],
	"meshes":[
		{
			"name":"simple_sword",
			"primitives":[
				{
					"attributes":{
						"POSITION":0,
						"NORMAL":1,
						"TEXCOORD_0":2,
						"COLOR_0":3
					},
					"indices":4
				}
			]
		}
	],
	"accessors":[
		{
			"bufferView":0,
			"componentType":5126,
			"count":86,
			"max":[
				1.333916187286377,
				0.5464518070220947,
				7.382892608642578
			],
			"min":[
				-1.333916187286377,
				-0.5464518070220947,
				-3.2257986068725586
			],
			"type":"VEC3"
		},
		{
			"bufferView":1,
			"componentType":5126,
			"count":86,
			"type":"VEC3"
		},
		{
			"bufferView":2,
			"componentType":5126,
			"count":86,
			"type":"VEC2"
		},
		{
			"bufferView":3,
			"componentType":5123,
			"count":86,
			"normalized":true,
			"type":"VEC4"
		},
		{
			"bufferView":4,
			"componentType":5123,
			"count":240,
			"type":"SCALAR"
		}
	],
	"bufferViews":[
		{
			"buffer":0,
			"byteLength":1032,
			"byteOffset":0,
			"target":34962
		},
		{
			"buffer":0,
			"byteLength":1032,
			"byteOffset":1032,
			"target":34962
		},
		{
			"buffer":0,
			"byteLength":688,
			"byteOffset":2064,
			"target":34962
		},
		{
			"buffer":0,
			"byteLength":688,
			"byteOffset":2752,
			"target":34962
		},
		{
			"buffer":0,
			"byteLength":480,
			"byteOffset":3440,
			"target":34963
		}
	],
	"buffers":[
		{
			"byteLength":3920,
			"uri":"simple_sword1.bin"
		}
	]
}
